<?xml version="1.0" encoding="utf-8"?>
<!-- Generator: Adobe Illustrator 21.1.0, SVG Export Plug-In . SVG Version: 6.00 Build 0)  -->
<svg version="1.1" id="Layer_1" xmlns="http://www.w3.org/2000/svg" xmlns:xlink="http://www.w3.org/1999/xlink" x="0px" y="0px"
	 viewBox="0 0 32 32" style="enable-background:new 0 0 32 32;" xml:space="preserve">
<style type="text/css">
	.Blue{fill:#1177D7;}
</style>
<g id="Info">
	<g>
		<path class="Blue" d="M16,2C8.3,2,2,8.3,2,16s6.3,14,14,14s14-6.3,14-14S23.7,2,16,2z M16,6c1.1,0,2,0.9,2,2s-0.9,2-2,2
			s-2-0.9-2-2S14.9,6,16,6z M20,24h-8v-2h2v-8h-2v-2h2h4v10h2V24z"/>
	</g>
	<g>
		<path class="Blue" d="M16,2C8.3,2,2,8.3,2,16s6.3,14,14,14s14-6.3,14-14S23.7,2,16,2z M16,6c1.1,0,2,0.9,2,2s-0.9,2-2,2
			s-2-0.9-2-2S14.9,6,16,6z M20,24h-8v-2h2v-8h-2v-2h2h4v10h2V24z"/>
	</g>
</g>
</svg>
