<?xml version="1.0" encoding="utf-8"?>
<!-- Generator: Adobe Illustrator 21.1.0, SVG Export Plug-In . SVG Version: 6.00 Build 0)  -->
<svg version="1.1" id="Layer_1" xmlns="http://www.w3.org/2000/svg" xmlns:xlink="http://www.w3.org/1999/xlink" x="0px" y="0px"
	 viewBox="0 0 32 32" style="enable-background:new 0 0 32 32;" xml:space="preserve">
<style type="text/css">
	.Red{fill:#D11C1C;}
</style>
<path class="Red" d="M16,2C8.3,2,2,8.3,2,16s6.3,14,14,14s14-6.3,14-14S23.7,2,16,2z M15.5,12.6L18.2,8c0.2-0.5,0.8-0.7,1.3-0.5
	C20,7.8,20.2,8.4,20,8.9l-2.6,4.6C17.1,14,16.5,14.2,16,14C15.5,13.7,15.3,13.1,15.5,12.6z M24,14h-1.1l-2,8h-5h-5l-2-8H8v-2h5.6
	c-0.6,1.4,0.1,3.1,1.5,3.8c1.5,0.7,3.3,0.1,4-1.4l1.4-2.4H24V14z"/>
</svg>
