<?xml version="1.0" encoding="utf-8"?>
<!-- Generator: Adobe Illustrator 21.1.0, SVG Export Plug-In . SVG Version: 6.00 Build 0)  -->
<svg version="1.1" id="Layer_1" xmlns="http://www.w3.org/2000/svg" xmlns:xlink="http://www.w3.org/1999/xlink" x="0px" y="0px"
	 viewBox="0 0 32 32" style="enable-background:new 0 0 32 32;" xml:space="preserve">
<style type="text/css">
	.Yellow{fill:#FFB115;}
	.Red{fill:#D11C1C;}
	.Blue{fill:#1177D7;}
	.Green{fill:#039C23;}
	.Black{fill:#727272;}
	.White{fill:#FFFFFF;}
	.st0{opacity:0.5;}
	.st1{display:none;}
	.st2{display:inline;fill:#039C23;}
	.st3{display:inline;fill:#D11C1C;}
	.st4{display:inline;fill:#727272;}
</style>
<g id="Close">
	<path class="Red" d="M16,2C8.3,2,2,8.3,2,16s6.3,14,14,14s14-6.3,14-14S23.7,2,16,2z M23.7,21.7c0.4,0.4,0.4,1,0,1.4l-0.6,0.6
		c-0.4,0.4-1,0.4-1.4,0L16,18l-5.7,5.7c-0.4,0.4-1,0.4-1.4,0l-0.6-0.6c-0.4-0.4-0.4-1,0-1.4L14,16l-5.7-5.7c-0.4-0.4-0.4-1,0-1.4
		l0.6-0.6c0.4-0.4,1-0.4,1.4,0L16,14l5.7-5.7c0.4-0.4,1-0.4,1.4,0l0.6,0.6c0.4,0.4,0.4,1,0,1.4L18,16L23.7,21.7z"/>
</g>
</svg>
