<?xml version="1.0" encoding="utf-8"?>
<!-- Generator: Adobe Illustrator 21.1.0, SVG Export Plug-In . SVG Version: 6.00 Build 0)  -->
<svg version="1.1" id="Layer_1" xmlns="http://www.w3.org/2000/svg" xmlns:xlink="http://www.w3.org/1999/xlink" x="0px" y="0px"
	 viewBox="0 0 32 32" style="enable-background:new 0 0 32 32;" xml:space="preserve">
<style type="text/css">
	.Yellow{fill:#FFB115;}
	.Red{fill:#D11C1C;}
	.Blue{fill:#1177D7;}
	.Green{fill:#039C23;}
	.Black{fill:#727272;}
	.White{fill:#FFFFFF;}
	.st0{opacity:0.5;}
	.st1{display:none;}
	.st2{display:inline;fill:#039C23;}
	.st3{display:inline;fill:#D11C1C;}
	.st4{display:inline;fill:#727272;}
</style>
<g id="Detailed">
	<path class="Blue" d="M8,8H6V6h2V8z M8,10H6v2h2V10z M8,14H6v2h2V14z M8,18H6v2h2V18z M8,22H6v2h2V22z"/>
	<path class="Black" d="M2,28V2h22v12.3c0.7,0.2,1.4,0.5,2,0.8V1c0-0.5-0.5-1-1-1H1C0.5,0,0,0.5,0,1v28c0,0.5,0.5,1,1,1h21
		c-2,0-3.9-0.8-5.3-2H2z"/>
	<path class="Blue" d="M31.6,29.9L27,25.3c0.6-0.9,1-2.1,1-3.3c0-3.3-2.7-6-6-6s-6,2.7-6,6s2.7,6,6,6c1.2,0,2.3-0.4,3.3-1l4.6,4.6
		c0.5,0.5,1.3,0.5,1.7,0C32.1,31.2,32.1,30.4,31.6,29.9z M22,26c-2.2,0-4-1.8-4-4s1.8-4,4-4s4,1.8,4,4S24.2,26,22,26z"/>
	<g class="st0">
		<path class="Black" d="M16.7,16H10v-2h10v0.3C18.8,14.6,17.6,15.2,16.7,16z M20,6H10v2h10V6z M20,10H10v2h10V10z M14,22h-4v2h4.3
			C14.1,23.4,14,22.7,14,22z M15.1,18H10v2h4.3C14.4,19.3,14.7,18.6,15.1,18z"/>
	</g>
</g>
</svg>
