<?xml version="1.0" encoding="utf-8"?>
<!-- Generator: Adobe Illustrator 21.1.0, SVG Export Plug-In . SVG Version: 6.00 Build 0)  -->
<svg version="1.1" id="Layer_1" xmlns="http://www.w3.org/2000/svg" xmlns:xlink="http://www.w3.org/1999/xlink" x="0px" y="0px"
	 viewBox="0 0 32 32" style="enable-background:new 0 0 32 32;" xml:space="preserve">
<style type="text/css">
	.Black{fill:#727272;}
	.Yellow{fill:#FFB115;}
	.Blue{fill:#1177D7;}
	.Red{fill:#D11C1C;}
	.White{fill:#FFFFFF;}
	.Green{fill:#039C23;}
	.st0{fill:#727272;}
	.st1{opacity:0.5;}
	.st2{opacity:0.75;}
</style>
<g id="Driving">
	<path class="Red" d="M24,4H6L2,14v13c0,0.5,0.4,1,1,1h2c0.6,0,1-0.5,1-1v-3h18v3c0,0.5,0.4,1,1,1h2c0.6,0,1-0.5,1-1V14L24,4z
		 M7.4,6h15.3l3.2,8H4.2L7.4,6z M8,20c-1.1,0-2-0.9-2-2s0.9-2,2-2s2,0.9,2,2S9.1,20,8,20z M22,20c-1.1,0-2-0.9-2-2s0.9-2,2-2
		s2,0.9,2,2S23.1,20,22,20z"/>
</g>
</svg>
