<?xml version="1.0" encoding="utf-8"?>
<!-- Generator: Adobe Illustrator 21.1.0, SVG Export Plug-In . SVG Version: 6.00 Build 0)  -->
<svg version="1.1" id="Layer_1" xmlns="http://www.w3.org/2000/svg" xmlns:xlink="http://www.w3.org/1999/xlink" x="0px" y="0px"
	 viewBox="0 0 32 32" style="enable-background:new 0 0 32 32;" xml:space="preserve">
<style type="text/css">
	.Yellow{fill:#FFB115;}
	.Red{fill:#D11C1C;}
	.Blue{fill:#1177D7;}
	.Green{fill:#039C23;}
	.Black{fill:#727272;}
	.White{fill:#FFFFFF;}
	.st0{opacity:0.5;}
	.st1{display:none;}
	.st2{display:inline;fill:#039C23;}
	.st3{display:inline;fill:#D11C1C;}
	.st4{display:inline;fill:#727272;}
</style>
<g id="ExpandCollapse">
	<path class="Green" d="M9,0C4,0,0,4,0,9s4,9,9,9c0.5,0,1-0.1,1.5-0.1c1.1-3.6,3.9-6.4,7.4-7.4c0-0.5,0.1-1,0.1-1.5C18,4,14,0,9,0z
		 M14,10h-4v4H8v-4H4V8h4V4h2v4h4V10z"/>
	<path class="Blue" d="M21,12c-5,0-9,4-9,9s4,9,9,9s9-4,9-9S26,12,21,12z M26,22H16v-2h10V22z"/>
</g>
</svg>
