<?xml version="1.0" encoding="utf-8"?>
<!-- Generator: Adobe Illustrator 21.1.0, SVG Export Plug-In . SVG Version: 6.00 Build 0)  -->
<svg version="1.1" id="Layer_1" xmlns="http://www.w3.org/2000/svg" xmlns:xlink="http://www.w3.org/1999/xlink" x="0px" y="0px"
	 viewBox="0 0 32 32" style="enable-background:new 0 0 32 32;" xml:space="preserve">
<style type="text/css">
	.Black{fill:#727272;}
</style>
<path class="Black" d="M16,2C8.3,2,2,8.3,2,16s6.3,14,14,14s14-6.3,14-14S23.7,2,16,2z M9.9,20H8.4v-6.7H7.2V12h2.7V20z M17.6,20
	h-5.8l2.4-2.7c0.1-0.2,1.1-1.2,1.4-1.7c0.2-0.3,0.5-0.8,0.5-1.3c0-0.7-0.5-1.2-1.2-1.2c-0.8,0-1.2,0.6-1.3,1.3h-1.6
	c0.1-1.6,1.2-2.7,2.8-2.7c1.9,0,2.8,1.3,2.8,2.5c0,1.2-0.8,2.1-1.5,2.8l-1.4,1.5h2.9V20z M22.2,20.2c-1.5,0-2.7-0.9-2.9-2.5h1.6
	c0.1,0.7,0.6,1.1,1.3,1.1c0.9,0,1.3-0.7,1.3-1.3c0-0.6-0.4-1.2-1.3-1.2H22v-1.1h0.2c0.8,0,1.1-0.5,1.1-1.1c0-0.6-0.4-1.1-1.1-1.1
	c-0.6,0-1.1,0.4-1.1,1h-1.5c0.1-1.5,1.2-2.3,2.6-2.3c1.5,0,2.5,0.9,2.5,2.2c0,0.4-0.1,1.2-0.9,1.7c0.3,0.1,1.2,0.6,1.2,1.9
	C25.1,19.3,23.8,20.2,22.2,20.2z"/>
</svg>
