<?xml version="1.0" encoding="utf-8"?>
<!-- Generator: Adobe Illustrator 21.1.0, SVG Export Plug-In . SVG Version: 6.00 Build 0)  -->
<svg version="1.1" id="Layer_1" xmlns="http://www.w3.org/2000/svg" xmlns:xlink="http://www.w3.org/1999/xlink" x="0px" y="0px"
	 viewBox="0 0 32 32" style="enable-background:new 0 0 32 32;" xml:space="preserve">
<style type="text/css">
	.Yellow{fill:#FFB115;}
	.Red{fill:#D11C1C;}
	.Blue{fill:#1177D7;}
	.Green{fill:#039C23;}
	.Black{fill:#727272;}
	.White{fill:#FFFFFF;}
	.st0{opacity:0.5;}
	.st1{display:none;}
	.st2{display:inline;fill:#039C23;}
	.st3{display:inline;fill:#D11C1C;}
	.st4{display:inline;fill:#727272;}
</style>
<g>
	<path class="Black" d="M31,2H9C8.5,2,8,2.5,8,3v9h2V4h20v16h-8v2h9c0.5,0,1-0.5,1-1V3C32,2.5,31.5,2,31,2z"/>
	<path class="Yellow" d="M10,24.3l10-6V29c0,0.5-0.5,1-1,1H1c-0.5,0-1-0.5-1-1V18.3L10,24.3z M19,14H1c-0.5,0-1,0.5-1,1v1l10,6l10-6
		v-1C20,14.5,19.5,14,19,14z"/>
	<polygon class="Green" points="28,10 24,10 24,6 22,6 22,10 18,10 18,12 22,12 22,16 24,16 24,12 28,12 	"/>
</g>
</svg>
