<?xml version="1.0" encoding="utf-8"?>
<!-- Generator: Adobe Illustrator 21.1.0, SVG Export Plug-In . SVG Version: 6.00 Build 0)  -->
<svg version="1.1" id="Layer_1" xmlns="http://www.w3.org/2000/svg" xmlns:xlink="http://www.w3.org/1999/xlink" x="0px" y="0px"
	 viewBox="0 0 32 32" style="enable-background:new 0 0 32 32;" xml:space="preserve">
<style type="text/css">
	.Yellow{fill:#FFB115;}
	.Red{fill:#D11C1C;}
	.Blue{fill:#1177D7;}
	.Green{fill:#039C23;}
	.Black{fill:#727272;}
	.White{fill:#FFFFFF;}
	.st0{opacity:0.5;}
	.st1{display:none;}
	.st2{display:inline;fill:#039C23;}
	.st3{display:inline;fill:#D11C1C;}
	.st4{display:inline;fill:#727272;}
</style>
<g id="Meeting">
	<rect x="10" y="14" class="Red" width="4" height="4"/>
	<g class="st0">
		<path class="Black" d="M14,24h-4v-4h4V24z M20,20h-4v4h4V20z M26,8h-4v4h4V8z M20,14h-4v4h4V14z M20,8h-4v4h4V8z M14,8h-4v4h4V8z
			 M8,8H4v4h4V8z M8,14H4v4h4V14z M8,20H4v4h4V20z"/>
	</g>
	<path class="Black" d="M18.6,26H2V6h26v6.4c0.9,0.3,1.5,0.8,2,1.3V3c0-0.6-0.4-1-1-1H1C0.4,2,0,2.4,0,3v24c0,0.6,0.4,1,1,1h17.1
		C18.1,27.2,18.3,26.5,18.6,26z"/>
	<path class="Blue" d="M32,29.1V30H20v-0.9c0-4,2.3-3.3,3.6-4.6c0.5,0.8,1.3,1.5,2.4,1.5c1.1,0,1.9-0.6,2.5-1.4
		C29.8,25.8,32,25.1,32,29.1z M22.9,20.8v0.1c0.4,1.5,1.3,3.1,3.1,3.1s2.8-1.6,3.2-3.1v-0.1c0.7,0,0.4-0.7,0.6-1s0.3-0.5,0.2-0.9
		c-0.1-0.3-0.3-0.2-0.4-0.2c1.2-3.1-0.7-2.9-0.7-2.9S28.7,14,25.2,14c-3.2,0-3.6,2.5-2.9,4.7c0,0.1-0.2,0.1-0.3,0.2
		c-0.1,0.4,0.1,0.6,0.3,0.9S22.2,20.8,22.9,20.8z"/>
</g>
</svg>
