<?xml version="1.0" encoding="utf-8"?>
<!-- Generator: Adobe Illustrator 21.1.0, SVG Export Plug-In . SVG Version: 6.00 Build 0)  -->
<svg version="1.1" id="Layer_1" xmlns="http://www.w3.org/2000/svg" xmlns:xlink="http://www.w3.org/1999/xlink" x="0px" y="0px"
	 viewBox="0 0 32 32" style="enable-background:new 0 0 32 32;" xml:space="preserve">
<style type="text/css">
	.Red{fill:#D11C1C;}
	.Black{fill:#727272;}
</style>
<g id="Layer_2_1_">
	<g>
		<g>
			<path class="Red" d="M14.8,12c-1.5,0.2-2.6,1.2-2.8,2.7c0,0,0,0.1,0,0.1L8,22l7.2-4c0.1,0,0.1,0,0.2,0c0.9-0.2,1.7-0.7,2.2-1.4
				c0.1-0.2,0.2-0.3,0.2-0.5c0-0.1,0.1-0.2,0.1-0.3c0,0,0,0,0-0.1c0-0.2,0.1-0.3,0.1-0.5L22,8L14.8,12z M15,16c-0.6,0-1-0.4-1-1
				c0-0.6,0.4-1,1-1s1,0.4,1,1C16,15.6,15.5,16,15,16z"/>
		</g>
		<g>
			<path class="Red" d="M14.8,12c-1.5,0.2-2.6,1.2-2.8,2.7c0,0,0,0.1,0,0.1L8,22l7.2-4c0.1,0,0.1,0,0.2,0c0.9-0.2,1.7-0.7,2.2-1.4
				c0.1-0.2,0.2-0.3,0.2-0.5c0-0.1,0.1-0.2,0.1-0.3c0,0,0,0,0-0.1c0-0.2,0.1-0.3,0.1-0.5L22,8L14.8,12z M15,16c-0.6,0-1-0.4-1-1
				c0-0.6,0.4-1,1-1s1,0.4,1,1C16,15.6,15.5,16,15,16z"/>
		</g>
	</g>
	<path class="Black" d="M15,2C7.8,2,2,7.8,2,15s5.8,13,13,13s13-5.8,13-13S22.2,2,15,2z M16,25.9V24h-2v1.9
		c-5.3-0.5-9.5-4.7-9.9-9.9H6v-2H4.1C4.5,8.7,8.7,4.5,14,4.1V6h2V4.1c5.3,0.5,9.5,4.7,9.9,9.9H24v2h1.9C25.5,21.3,21.3,25.5,16,25.9
		z"/>
</g>
</svg>
