<?xml version="1.0" encoding="utf-8"?>
<!-- Generator: Adobe Illustrator 21.1.0, SVG Export Plug-In . SVG Version: 6.00 Build 0)  -->
<svg version="1.1" id="Layer_1" xmlns="http://www.w3.org/2000/svg" xmlns:xlink="http://www.w3.org/1999/xlink" x="0px" y="0px"
	 viewBox="0 0 32 32" style="enable-background:new 0 0 32 32;" xml:space="preserve">
<style type="text/css">
	.Black{fill:#727272;}
	.Green{fill:#039C23;}
</style>
<path class="Black" d="M18.8,20c-1.1-0.4-2.1-0.9-2.8-2c-0.8,1.5-2.1,4-4,4s-3.2-2.5-4-4c-2.3,3.5-8,1-8,8.5V30h18.8
	c-1.1-1.4-1.8-3.1-1.8-5C17,23.1,17.7,21.3,18.8,20z"/>
<path class="Black" d="M7.3,12.9c0,0,0,0.1,0,0.2c0.6,2.3,2,4.9,4.7,4.9s4.2-2.6,4.7-4.9V13c1,0.1,0.6-1.1,0.9-1.6
	c0.2-0.5,0.4-0.9,0.3-1.4c-0.1-0.4-0.4-0.4-0.5-0.3C19.2,4.8,16.3,5,16.3,5S16,2,10.8,2C6,2,5.4,6,6.5,9.6C6.4,9.6,6.1,9.7,6,9.9
	c-0.1,0.5,0.2,0.9,0.4,1.4C6.6,11.8,6.3,13,7.3,12.9z"/>
<path class="Green" d="M25,18c-2.1,0-3.9,0.9-5.2,2.3C18.7,21.6,18,23.2,18,25c0,2,0.8,3.7,2.1,5c1.3,1.2,3,2,4.9,2c3.9,0,7-3.1,7-7
	C32,21.1,28.9,18,25,18z M26,26v4h-2v-3.5c0-0.2,0-0.3,0-0.5h-4v-2h3.7H24v-4h2v4h4v2H26z"/>
</svg>
