<?xml version="1.0" encoding="utf-8"?>
<!-- Generator: Adobe Illustrator 21.1.0, SVG Export Plug-In . SVG Version: 6.00 Build 0)  -->
<svg version="1.1" id="Layer_1" xmlns="http://www.w3.org/2000/svg" xmlns:xlink="http://www.w3.org/1999/xlink" x="0px" y="0px"
	 viewBox="0 0 32 32" style="enable-background:new 0 0 32 32;" xml:space="preserve">
<style type="text/css">
	.Black{fill:#727272;}
</style>
<path class="Black" d="M32,21.1c0-4.5-3.8-3-5.3-5.1c-0.5,0.9-1.4,2-2.7,2s-2.1-1.1-2.7-2c-0.8,1.2-2.4,1.2-3.6,1.8
	c2.5,2.2,7,1,7.3,7.2h7V21.1z"/>
<path class="Black" d="M20,10.9c-0.1,0.3,0.1,0.6,0.3,0.9c0.1,0.3-0.1,1.1,0.6,1c0,0,0,0.1,0,0.1c0.4,1.4,1.3,3.1,3.1,3.1
	s2.8-1.6,3.1-3.1v-0.1c0.7,0.1,0.4-0.7,0.6-1c0.1-0.3,0.3-0.6,0.2-0.9c-0.1-0.3-0.3-0.3-0.3-0.2c1.2-3.1-0.7-2.9-0.7-2.9
	S26.7,6,23.2,6c-3.2,0-3.6,2.5-2.9,4.8C20.3,10.8,20.1,10.8,20,10.9z"/>
<path class="Black" d="M6,9.9c-0.1,0.5,0.2,0.9,0.4,1.4S6.3,13,7.3,12.9c0,0,0,0.1,0,0.2c0.6,2.3,2,4.9,4.7,4.9s4.2-2.6,4.7-4.9V13
	c1,0.1,0.6-1.1,0.9-1.6c0.2-0.5,0.4-0.9,0.3-1.4c-0.1-0.4-0.4-0.4-0.5-0.3C19.2,4.8,16.3,5,16.3,5S16,2,10.8,2C6,2,5.4,6,6.5,9.6
	C6.4,9.6,6.1,9.7,6,9.9z"/>
<path class="Black" d="M16,18c-0.8,1.5-2.1,4-4,4s-3.2-2.5-4-4c-2.3,3.5-8,1-8,8.5V30h24v-3.5C24,19.1,18.3,21.4,16,18z"/>
</svg>
