<?xml version="1.0" encoding="utf-8"?>
<!-- Generator: Adobe Illustrator 21.1.0, SVG Export Plug-In . SVG Version: 6.00 Build 0)  -->
<svg version="1.1" id="Layer_1" xmlns="http://www.w3.org/2000/svg" xmlns:xlink="http://www.w3.org/1999/xlink" x="0px" y="0px"
	 viewBox="0 0 32 32" style="enable-background:new 0 0 32 32;" xml:space="preserve">
<style type="text/css">
	.Black{fill:#727272;}
	.Yellow{fill:#FFB115;}
	.Blue{fill:#1177D7;}
	.Red{fill:#D11C1C;}
	.White{fill:#FFFFFF;}
	.Green{fill:#039C23;}
	.st0{fill:#727272;}
	.st1{opacity:0.5;}
	.st2{opacity:0.75;}
</style>
<g id="NewOrder">
	<path class="Black" d="M19,26c1.7,0,3,1.3,3,3s-1.3,3-3,3s-3-1.3-3-3S17.3,26,19,26z M6,22v-8v-2H0v2h4v10h20v-2H6z M6,29
		c0,1.7,1.3,3,3,3s3-1.3,3-3s-1.3-3-3-3S6,27.3,6,29z M16.1,8H9C8.4,8,8,8.5,8,9v10c0,0.5,0.4,1,1,1h12c0.6,0,1-0.5,1-1v-3.5
		C18.8,14.3,16.4,11.5,16.1,8z"/>
	<path class="Green" d="M25,0c-3.9,0-7,3.1-7,7c0,3.9,3.1,7,7,7s7-3.1,7-7C32,3.1,28.9,0,25,0z M26,8v4h-2V8h-4V6h4V2h2v4h4v2H26z"
		/>
</g>
</svg>
