<?xml version="1.0" encoding="utf-8"?>
<!-- Generator: Adobe Illustrator 20.1.0, SVG Export Plug-In . SVG Version: 6.00 Build 0)  -->
<svg version="1.1" id="Слой_1" xmlns="http://www.w3.org/2000/svg" xmlns:xlink="http://www.w3.org/1999/xlink" x="0px" y="0px"
	 viewBox="0 0 32 32" style="enable-background:new 0 0 32 32;" xml:space="preserve">
<style type="text/css">
	.White{fill:#FFFFFF;}
	.Blue{fill:#1177D7;}
	.Green{fill:#039C23;}
</style>
<g id="Слой_2">
	<path class="Blue" d="M16,7c0,5,4,9,9,9c1.9,0,3.6-0.6,5-1.5V28H0V6h16.1C16,6.3,16,6.7,16,7z"/>
	<path class="Green" d="M25,0c3.9,0,7,3.1,7,7s-3.1,7-7,7s-7-3.1-7-7S21.1,0,25,0z"/>
	<path class="White" d="M30,8h-4v4h-2V8h-4V6h4V2h2v4h4V8z"/>
	<path class="White" d="M13.6,15.8L8.5,21L7,19.5l5.1-5.1L9.8,12H16v6.2L13.6,15.8z"/>
	<rect x="2" y="8" class="White" width="2" height="2"/>
	<rect x="2" y="12" class="White" width="2" height="2"/>
	<rect x="2" y="16" class="White" width="2" height="2"/>
	<rect x="2" y="20" class="White" width="2" height="2"/>
	<rect x="2" y="24" class="White" width="2" height="2"/>
	<rect x="6" y="24" class="White" width="2" height="2"/>
	<rect x="10" y="24" class="White" width="2" height="2"/>
	<rect x="14" y="24" class="White" width="2" height="2"/>
	<rect x="18" y="24" class="White" width="2" height="2"/>
	<rect x="22" y="24" class="White" width="2" height="2"/>
	<rect x="26" y="24" class="White" width="2" height="2"/>
</g>
</svg>
