<?xml version="1.0" encoding="utf-8"?>
<!-- Generator: Adobe Illustrator 21.1.0, SVG Export Plug-In . SVG Version: 6.00 Build 0)  -->
<svg version="1.1" id="Layer_1" xmlns="http://www.w3.org/2000/svg" xmlns:xlink="http://www.w3.org/1999/xlink" x="0px" y="0px"
	 viewBox="0 0 32 32" style="enable-background:new 0 0 32 32;" xml:space="preserve">
<style type="text/css">
	.Black{fill:#727272;}
	.Yellow{fill:#FFB115;}
	.Blue{fill:#1177D7;}
	.Red{fill:#D11C1C;}
	.White{fill:#FFFFFF;}
	.Green{fill:#039C23;}
	.st0{fill:#727272;}
	.st1{opacity:0.5;}
	.st2{opacity:0.75;}
</style>
<g id="Open">
	<g class="st2">
		<path class="Yellow" d="M2.2,25.2l5.5-10C8,14.5,8.7,14,9.5,14H24v-3c0-0.6-0.4-1-1-1H12V7c0-0.6-0.4-1-1-1H3C2.4,6,2,6.5,2,7v18
			c0,0.2,0,0.3,0.1,0.4C2.1,25.4,2.2,25.3,2.2,25.2z"/>
	</g>
	<path class="Yellow" d="M29.3,16H9.6L4,26h19.8c0.5,0,1.1-0.2,1.3-0.6l4.9-8.9C30.1,16.2,29.8,16,29.3,16z"/>
</g>
</svg>
