<?xml version="1.0" encoding="utf-8"?>
<!-- Generator: Adobe Illustrator 21.1.0, SVG Export Plug-In . SVG Version: 6.00 Build 0)  -->
<svg version="1.1" id="Layer_1" xmlns="http://www.w3.org/2000/svg" xmlns:xlink="http://www.w3.org/1999/xlink" x="0px" y="0px"
	 viewBox="0 0 32 32" style="enable-background:new 0 0 32 32;" xml:space="preserve">
<style type="text/css">
	.Black{fill:#727272;}
	.Yellow{fill:#FFB115;}
	.Blue{fill:#1177D7;}
	.Red{fill:#D11C1C;}
	.White{fill:#FFFFFF;}
	.Green{fill:#039C23;}
	.st0{fill:#727272;}
	.st1{opacity:0.5;}
	.st2{opacity:0.75;}
</style>
<g id="Paid">
	<path class="Red" d="M28,22C28,22,28,22,28,22l0,5c0,0.6-0.5,1-1,1H3c-0.6,0-1-0.5-1-1V5c0-0.6,0.5-1,1-1H27c0.6,0,1,0.5,1,1v1v4
		c0,0,0,0,0,0h-7.7c-3.3,0-6.2,2.5-6.3,5.8c-0.1,3.4,2.6,6.2,6,6.2H28z M30,13v6c0,0.5-0.5,1-1,1h0h-8.8c-2.1,0-4-1.5-4.2-3.6
		C15.8,14,17.7,12,20,12h9h0C29.5,12,30,12.5,30,13z M22,16c0-1.1-0.9-2-2-2s-2,0.9-2,2c0,1.1,0.9,2,2,2S22,17.1,22,16z"/>
</g>
</svg>
