<?xml version="1.0" encoding="utf-8"?>
<!-- Generator: Adobe Illustrator 21.1.0, SVG Export Plug-In . SVG Version: 6.00 Build 0)  -->
<svg version="1.1" id="Layer_1" xmlns="http://www.w3.org/2000/svg" xmlns:xlink="http://www.w3.org/1999/xlink" x="0px" y="0px"
	 viewBox="0 0 32 32" style="enable-background:new 0 0 32 32;" xml:space="preserve">
<style type="text/css">
	.Black{fill:#727272;}
	.Yellow{fill:#FFB115;}
	.Blue{fill:#1177D7;}
	.Red{fill:#D11C1C;}
	.White{fill:#FFFFFF;}
	.Green{fill:#039C23;}
	.st0{fill:#727272;}
	.st1{opacity:0.5;}
	.st2{opacity:0.75;}
</style>
<g id="PrintQuick">
	<path class="Black" d="M8,10H6V0h14v10h-2V2H8V10z M19.3,28l0.7-2h-8.8H8v-8h11.1l6.9-6.9V10c0-1.1-0.9-2-2-2h-2v3c0,0.6-0.4,1-1,1
		H5c-0.6,0-1-0.4-1-1V8H2c-1.1,0-2,0.9-2,2v12c0,1.1,0.9,2,2,2h4v4H19.3z"/>
	<polygon class="Yellow" points="28,12 16,24 23,24 20,32 32,20 25,20 	"/>
</g>
</svg>
