<?xml version="1.0" encoding="utf-8"?>
<!-- Generator: Adobe Illustrator 21.1.0, SVG Export Plug-In . SVG Version: 6.00 Build 0)  -->
<svg version="1.1" id="Layer_1" xmlns="http://www.w3.org/2000/svg" xmlns:xlink="http://www.w3.org/1999/xlink" x="0px" y="0px"
	 viewBox="0 0 32 32" style="enable-background:new 0 0 32 32;" xml:space="preserve">
<style type="text/css">
	.Yellow{fill:#FFB115;}
	.Red{fill:#D11C1C;}
	.Blue{fill:#1177D7;}
	.Green{fill:#039C23;}
	.Black{fill:#727272;}
	.White{fill:#FFFFFF;}
	.st0{opacity:0.5;}
	.st1{display:none;}
	.st2{display:inline;fill:#039C23;}
	.st3{display:inline;fill:#D11C1C;}
	.st4{display:inline;fill:#727272;}
</style>
<g id="Print_1_">
	<path class="Black" d="M10,4h12v8h2V2H8v10h2V4z M28,10h-2v3c0,0.6-0.4,1-1,1H7c-0.6,0-1-0.4-1-1v-3H4c-1.1,0-2,0.9-2,2v12
		c0,1.1,0.9,2,2,2h4v4h16v-4h4c1.1,0,2-0.9,2-2V12C30,10.9,29.1,10,28,10z M22,28H10v-8h12V28z"/>
</g>
</svg>
