<?xml version="1.0" encoding="utf-8"?>
<!-- Generator: Adobe Illustrator 21.1.0, SVG Export Plug-In . SVG Version: 6.00 Build 0)  -->
<svg version="1.1" id="Layer_1" xmlns="http://www.w3.org/2000/svg" xmlns:xlink="http://www.w3.org/1999/xlink" x="0px" y="0px"
	 viewBox="0 0 32 32" style="enable-background:new 0 0 32 32;" xml:space="preserve">
<style type="text/css">
	.Black{fill:#727272;}
	.Blue{fill:#1177D7;}
</style>
<path class="Black" d="M19.4,26H16l0,0l0,0H6V4h12v5c0,0.6,0.4,1,1,1h5v11.4l2,2V9l-7-7H5C4.4,2,4,2.4,4,3v24c0,0.6,0.4,1,1,1h16.4
	L19.4,26z"/>
<path class="Blue" d="M16,12c3.3,0,6,2.7,6,6c0,1.2-0.4,2.3-1,3.3l4.6,4.6c0.5,0.5,0.5,1.3,0,1.7c-0.5,0.5-1.3,0.5-1.7,0L19.3,23
	c-0.9,0.6-2.1,1-3.3,1c-3.3,0-6-2.7-6-6C10,14.7,12.7,12,16,12z M16,22c2.2,0,4-1.8,4-4s-1.8-4-4-4s-4,1.8-4,4S13.8,22,16,22z"/>
</svg>
