<?xml version="1.0" encoding="utf-8"?>
<!-- Generator: Adobe Illustrator 20.1.0, SVG Export Plug-In . SVG Version: 6.00 Build 0)  -->
<svg version="1.1" id="Слой_1" xmlns="http://www.w3.org/2000/svg" xmlns:xlink="http://www.w3.org/1999/xlink" x="0px" y="0px"
	 viewBox="0 0 32 32" style="enable-background:new 0 0 32 32;" xml:space="preserve">
<style type="text/css">
	.Black{fill:#727272;}
	.White{fill:#FFFFFF;}
	.st0{fill:#FFB115;}
	.st1{opacity:0.5;}
</style>
<g id="ProfileReport">
	<rect x="4" y="4" class="st0" width="24" height="28"/>
	<path class="Black" d="M24,6V2h-4l-0.6-0.6C18.5,0.5,17.3,0,16,0s-2.5,0.5-3.4,1.4L12,2H8v4H6v24h20V10V6H24z"/>
	<polyline class="White" points="24,28 8,28 8,8 20,8 24,8 24,12 	"/>
	<g class="st1">
		<rect x="10" y="10" class="Black" width="12" height="2"/>
		<rect x="10" y="14" class="Black" width="12" height="2"/>
		<rect x="10" y="18" class="Black" width="12" height="2"/>
		<rect x="10" y="22" class="Black" width="8" height="2"/>
	</g>
</g>
</svg>
