<?xml version="1.0" encoding="utf-8"?>
<!-- Generator: Adobe Illustrator 21.1.0, SVG Export Plug-In . SVG Version: 6.00 Build 0)  -->
<svg version="1.1" id="Layer_1" xmlns="http://www.w3.org/2000/svg" xmlns:xlink="http://www.w3.org/1999/xlink" x="0px" y="0px"
	 viewBox="0 0 32 32" style="enable-background:new 0 0 32 32;" xml:space="preserve">
<style type="text/css">
	.Black{fill:#727272;}
	.Yellow{fill:#FFB115;}
	.Blue{fill:#1177D7;}
	.Red{fill:#D11C1C;}
	.White{fill:#FFFFFF;}
	.Green{fill:#039C23;}
	.st0{fill:#727272;}
	.st1{opacity:0.5;}
	.st2{opacity:0.75;}
</style>
<g id="Refund">
	<path class="Red" d="M22,26h6v2v3c0,0.5-0.5,1-1,1H3c-0.5,0-1-0.5-1-1V9c0-0.5,0.5-1,1-1h1.2l8.8,8.8L21.8,8H27c0,0,1,0,1,1v4.9
		c0,0,0,0.1-0.1,0.1H22c-3.3,0-6,2.7-6,6S18.7,26,22,26z M30,17v6c0,0.5-0.5,1-1,1h-7c-2.2,0-4-1.8-4-4s1.8-4,4-4h7
		C29.5,16,30,16.5,30,17z M24,20c0-1.1-0.9-2-2-2s-2,0.9-2,2c0,1.1,0.9,2,2,2S24,21.1,24,20z"/>
	<path class="Blue" d="M12,6v2H7l6,6l6-6h-5V6c0-2.2,1.8-4,4-4h4V0h-4C14.7,0,12,2.7,12,6z"/>
</g>
</svg>
