<?xml version="1.0" encoding="utf-8"?>
<!-- Generator: Adobe Illustrator 20.1.0, SVG Export Plug-In . SVG Version: 6.00 Build 0)  -->
<svg version="1.1" id="Слой_1" xmlns="http://www.w3.org/2000/svg" xmlns:xlink="http://www.w3.org/1999/xlink" x="0px" y="0px"
	 viewBox="0 0 32 32" style="enable-background:new 0 0 32 32;" xml:space="preserve">
<style type="text/css">
	.White{fill:#FFFFFF;}
	.Black{fill:#727272;}
	.Red{fill:#D11C1C;}
	.st0{opacity:0.6;}
</style>
<path class="Black" d="M0,6h32v22H0V6z"/>
<polygon class="White" points="30,14 30,8 2,8 2,26 18,26 18,28 32,28 32,14 "/>
<path class="Red" d="M22,24c-1.1,0-2,0.9-2,2s0.9,2,2,2s2-0.9,2-2S23.1,24,22,24z M28,24c-1.1,0-2,0.9-2,2s0.9,2,2,2s2-0.9,2-2
	S29.1,24,28,24z M20,22h8l4-6H22l-3-3l-1,1l2,2V22z"/>
<g id="Слой_2" class="st0">
	<polygon class="Black" points="4,24 4,18 8,18 8,14 12,14 12,10 16,10 16,24 	"/>
</g>
</svg>
