<?xml version="1.0" encoding="utf-8"?>
<!-- Generator: Adobe Illustrator 20.1.0, SVG Export Plug-In . SVG Version: 6.00 Build 0)  -->
<svg version="1.1" id="Слой_1" xmlns="http://www.w3.org/2000/svg" xmlns:xlink="http://www.w3.org/1999/xlink" x="0px" y="0px"
	 viewBox="0 0 32 32" style="enable-background:new 0 0 32 32;" xml:space="preserve">
<style type="text/css">
	.White{fill:#FFFFFF;}
	.Black{fill:#727272;}
	.Yellow{fill:#FFB115;}
	.Red{fill:#D11C1C;}
</style>
<rect x="6" y="12" class="White" width="20" height="18"/>
<g>
	<g>
		<path class="Red" d="M18,26c-1.1,0-2,0.9-2,2c0,1.1,0.9,2,2,2c1.1,0,2-0.9,2-2C20,26.9,19.1,26,18,26z M24,26c-1.1,0-2,0.9-2,2
			c0,1.1,0.9,2,2,2c1.1,0,2-0.9,2-2C26,26.9,25.1,26,24,26z M15,15l-1,1l2,2v6h8l4-6H18L15,15z M2,2v10h26V2H2z"/>
	</g>
</g>
<g>
	<rect x="4" y="4" class="Yellow" width="2" height="6"/>
	<rect x="8" y="4" class="Yellow" width="2" height="6"/>
	<rect x="12" y="4" class="Yellow" width="2" height="6"/>
	<rect x="16" y="4" class="Yellow" width="2" height="6"/>
	<rect x="20" y="4" class="Yellow" width="2" height="6"/>
	<rect x="24" y="4" class="Yellow" width="2" height="6"/>
</g>
<g>
	<rect x="24" y="12" class="Black" width="2" height="4"/>
	<polyline class="Black" points="6,28 6,12 4,12 4,30 14,30 14,28 	"/>
</g>
</svg>
