<?xml version="1.0" encoding="utf-8"?>
<!-- Generator: Adobe Illustrator 20.1.0, SVG Export Plug-In . SVG Version: 6.00 Build 0)  -->
<svg version="1.1" id="Слой_1" xmlns="http://www.w3.org/2000/svg" xmlns:xlink="http://www.w3.org/1999/xlink" x="0px" y="0px"
	 viewBox="0 0 32 32" style="enable-background:new 0 0 32 32;" xml:space="preserve">
<style type="text/css">
	.White{fill:#FFFFFF;}
	.Red{fill:#D11C1C;}
	.Black{fill:#727272;}
	.st0{opacity:0.6;}
</style>
<path class="Black" d="M4,2v28h24V8V2H4z"/>
<polygon class="White" points="26,16 26,4 6,4 6,28 16,28 16,30 28,30 28,16 "/>
<g>
	<polygon class="Red" points="28,20 31,17 32,18 30,20 30,26 22,26 18,20 	"/>
	<rect x="8" y="14" class="Red" width="4" height="4"/>
	<rect x="14" y="10" class="Red" width="4" height="8"/>
	<rect x="20" y="6" class="Red" width="4" height="12"/>
	<path class="Red" d="M28,28c-1.1,0-2,0.9-2,2s0.9,2,2,2s2-0.9,2-2S29.1,28,28,28z M22,28c-1.1,0-2,0.9-2,2s0.9,2,2,2s2-0.9,2-2
		S23.1,28,22,28z"/>
</g>
<g class="st0">
	<g>
		<rect x="8" y="20" class="Black" width="8" height="2"/>
		<rect x="8" y="24" class="Black" width="8" height="2"/>
	</g>
</g>
</svg>
