<?xml version="1.0" encoding="utf-8"?>
<!-- Generator: Adobe Illustrator 21.1.0, SVG Export Plug-In . SVG Version: 6.00 Build 0)  -->
<svg version="1.1" id="Layer_1" xmlns="http://www.w3.org/2000/svg" xmlns:xlink="http://www.w3.org/1999/xlink" x="0px" y="0px"
	 viewBox="0 0 32 32" style="enable-background:new 0 0 32 32;" xml:space="preserve">
<style type="text/css">
	.Yellow{fill:#FFB115;}
	.Red{fill:#D11C1C;}
	.Blue{fill:#1177D7;}
	.Green{fill:#039C23;}
	.Black{fill:#727272;}
	.White{fill:#FFFFFF;}
	.st0{opacity:0.5;}
	.st1{display:none;}
	.st2{display:inline;fill:#039C23;}
	.st3{display:inline;fill:#D11C1C;}
	.st4{display:inline;fill:#727272;}
</style>
<g id="SaveAndClose">
	<path class="Black" d="M6,16V6H3C2.4,6,2,6.4,2,7v22c0,0.6,0.4,1,1,1h22c0.6,0,1-0.4,1-1V16H6z M6,26v-6h16v6H6z M16,6H8v8h8V6z
		 M12,12h-2V8h2V12z"/>
	<path class="Red" d="M29,2H19c-0.5,0-1,0.5-1,1v10c0,0.5,0.5,1,1,1h10c0.5,0,1-0.5,1-1V3C30,2.5,29.5,2,29,2z M27.7,10.4
		c0.4,0.4,0.4,1,0,1.3c-0.4,0.4-1,0.4-1.3,0L24,9.3l-2.4,2.4c-0.4,0.4-1,0.4-1.3,0c-0.4-0.4-0.4-1,0-1.3L22.7,8l-2.4-2.4
		c-0.4-0.4-0.4-1,0-1.3c0.4-0.4,1-0.4,1.3,0L24,6.7l2.4-2.4c0.4-0.4,1-0.4,1.3,0c0.4,0.4,0.4,1,0,1.3L25.3,8L27.7,10.4z"/>
</g>
</svg>
