<?xml version="1.0" encoding="utf-8"?>
<!-- Generator: Adobe Illustrator 20.1.0, SVG Export Plug-In . SVG Version: 6.00 Build 0)  -->
<svg version="1.1" id="Слой_1" xmlns="http://www.w3.org/2000/svg" xmlns:xlink="http://www.w3.org/1999/xlink" x="0px" y="0px"
	 viewBox="0 0 32 32" style="enable-background:new 0 0 32 32;" xml:space="preserve">
<style type="text/css">
	.White{fill:#FFFFFF;}
	.Red{fill:#D11C1C;}
	.Black{fill:#727272;}
	.st0{opacity:0.6;}
</style>
<polygon class="Black" points="24,4 24,8 18,8 18,4 8,4 8,8 2,8 2,4 0,4 0,28 26,28 26,4 "/>
<path class="White" d="M2,12h24v14H2V12z"/>
<path class="Black" d="M4,6h2V2H4V6z M20,2v4h2V2H20z"/>
<g id="Слой_2" class="st0">
	<path class="Black" d="M4,24h2v-2H4V24z M4,20h2v-2H4V20z M4,16h2v-2H4V16z M8,24h2v-2H8V24z M12,24h2v-2h-2V24z M16,14v2h2v-2H16z
		 M16,20h2v-2h-2V20z"/>
</g>
<path class="Red" d="M8,20h6v-6H8V20z M10,16h2v2h-2V16z"/>
<polygon class="Red" points="16,22 16,24 18,24 18,32 28,32 28,24 30,24 30,22 "/>
<polygon class="Red" points="23,21 26,18 24,18 24,14 22,14 22,18 20,18 "/>
</svg>
