<?xml version="1.0" encoding="utf-8"?>
<!-- Generator: Adobe Illustrator 20.1.0, SVG Export Plug-In . SVG Version: 6.00 Build 0)  -->
<svg version="1.1" id="Слой_1" xmlns="http://www.w3.org/2000/svg" xmlns:xlink="http://www.w3.org/1999/xlink" x="0px" y="0px"
	 viewBox="0 0 32 32" style="enable-background:new 0 0 32 32;" xml:space="preserve">
<style type="text/css">
	.Blue{fill:#1177D7;}
	.Black{fill:#727272;}
	.Red{fill:#D11C1C;}
	.st0{fill:#FFFFFF;}
	.st1{opacity:0.6;}
</style>
<g id="Слой_2">
	<polygon class="Black" points="24,4 24,8 18,8 18,4 8,4 8,8 2,8 2,4 0,4 0,28 26,28 26,4 	"/>
	<path class="st0" d="M2,12h22v14H2V12z"/>
	<g>
		<g>
			<path class="Black" d="M4,6h2V2H4V6z M20,2v4h2V2H20z"/>
		</g>
	</g>
	<path class="Red" d="M23,18c3.9,0,7,3.1,7,7s-3.1,7-7,7s-7-3.1-7-7S19.1,18,23,18z"/>
	<path class="st0" d="M23,20c2.8,0,5,2.2,5,5s-2.2,5-5,5s-5-2.2-5-5S20.2,20,23,20z"/>
	<g>
		<g>
			<g>
				<polygon class="Blue" points="31,19 29,17 28,18 28.5,18.5 27,20 28,21 29.5,19.5 30,20 				"/>
			</g>
		</g>
		<g>
			<g>
				<polygon class="Red" points="31,19 29,17 28,18 28.5,18.5 27,20 28,21 29.5,19.5 30,20 				"/>
			</g>
		</g>
	</g>
	<path class="Red" d="M21,25.2c0,1,0.8,1.8,1.8,1.8c0.9,0,1.7-0.7,1.8-1.7L26,22l-3.3,1.4C21.7,23.5,21,24.3,21,25.2z"/>
	<path class="Red" d="M8,20v-6h6v6H8z M10,16v2h2v-2H10z"/>
</g>
<g id="Слой_2_1_" class="st1">
	<path class="Black" d="M4,24h2v-2H4V24z M4,20h2v-2H4V20z M4,16h2v-2H4V16z M8,24h2v-2H8V24z M12,24h2v-2h-2V24z M16,20h2v-2h-2V20
		z M16,16h2v-2h-2V16z M20,14v2h2v-2H20z"/>
</g>
</svg>
