<?xml version="1.0" encoding="utf-8"?>
<!-- Generator: Adobe Illustrator 21.1.0, SVG Export Plug-In . SVG Version: 6.00 Build 0)  -->
<svg version="1.1" id="Layer_1" xmlns="http://www.w3.org/2000/svg" xmlns:xlink="http://www.w3.org/1999/xlink" x="0px" y="0px"
	 viewBox="0 0 32 32" style="enable-background:new 0 0 32 32;" xml:space="preserve">
<style type="text/css">
	.Green{fill:#039C23;}
</style>
<g>
	<path class="Green" d="M13,16c-0.4,0-0.8,0.1-1.2,0.2c-0.7,0.2-1.3,0.5-1.8,0.9c-0.6,0.5-1,1.2-1,1.9c0,1.7,1.8,3,4,3
		c1.8,0,3.2-0.9,3.8-2c0.1-0.3,0.2-0.6,0.2-1c0-0.4-0.1-0.7-0.3-1.1C16.2,16.8,14.7,16,13,16z"/>
	<path class="Green" d="M15,2C7.3,2,1,8.3,1,16s6.3,14,14,14s14-6.3,14-14S22.7,2,15,2z M23,14c0,2.4-1.6,4.5-4,5.4
		C18.7,22,16.1,24,13,24c-1.4,0-2.7-0.4-3.7-1.1l0,0c0,0-1.3-0.4-2.3,1.1c0,0-0.8-1.6,0.3-3.4C7.1,20.1,7,19.5,7,19
		c0-1.5,0.8-2.9,2.1-3.8C9,14.8,9,14.4,9,14c0-3.3,3.1-6,7-6c1.8,0,3.4,0.6,4.6,1.5c0.4,0,1.6,0.1,2.4-1.5c0,0,1.6,1.8-0.4,4.1
		C22.9,12.7,23,13.3,23,14z"/>
	<path class="Green" d="M16,10c-2.8,0-5,1.8-5,4c0,0.1,0,0.2,0,0.3c0.6-0.2,1.3-0.3,2-0.3c2.6,0,4.9,1.4,5.7,3.4
		c1.4-0.7,2.3-2,2.3-3.4C21,11.8,18.8,10,16,10z"/>
</g>
</svg>
