<?xml version="1.0" encoding="utf-8"?>
<!-- Generator: Adobe Illustrator 20.1.0, SVG Export Plug-In . SVG Version: 6.00 Build 0)  -->
<svg version="1.1" id="Слой_1" xmlns="http://www.w3.org/2000/svg" xmlns:xlink="http://www.w3.org/1999/xlink" x="0px" y="0px"
	 viewBox="0 0 32 32" style="enable-background:new 0 0 32 32;" xml:space="preserve">
<style type="text/css">
	.White{fill:#FFFFFF;}
	.Black{fill:#727272;}
	.Yellow{fill:#FFB115;}
</style>
<g id="Слой_2">
	<path class="Yellow" d="M30,16l-2,10c-0.2,0.9-0.4,1.6-1,2l0,0h-1l0,0l0,0H15.9L13,26h-1v-9l6-6l2-3c0-0.1,0,0.1,0,0
		c0-1.1,0.9-2,2-2c1.1,0,2,0.9,2,2c0,0.3,0-0.3,0,0c0,0,0,0,0,1s-2,5-2,5h7l0,0C29.6,14.3,30,15.2,30,16z"/>
	<path class="Black" d="M4,12h8v16H4V12z"/>
	<path class="White" d="M8,24h2v2H8V24z"/>
	<path class="Yellow" d="M30,16l-2,10c-0.2,0.9-0.4,1.6-1,2l0,0h-1l0,0l0,0H15.9L13,26h-1v-9l6-6l2-3c0-0.1,0,0.1,0,0
		c0-1.1,0.9-2,2-2c1.1,0,2,0.9,2,2c0,0.3,0-0.3,0,0c0,0,0,0,0,1s-2,5-2,5h7l0,0C29.6,14.3,30,15.2,30,16z"/>
	<path class="Black" d="M4,12h8v16H4V12z"/>
	<path class="White" d="M8,24h2v2H8V24z"/>
</g>
</svg>
