<?xml version="1.0" encoding="utf-8"?>
<!-- Generator: Adobe Illustrator 21.1.0, SVG Export Plug-In . SVG Version: 6.00 Build 0)  -->
<svg version="1.1" id="Layer_1" xmlns="http://www.w3.org/2000/svg" xmlns:xlink="http://www.w3.org/1999/xlink" x="0px" y="0px"
	 viewBox="0 0 32 32" style="enable-background:new 0 0 32 32;" xml:space="preserve">
<style type="text/css">
	.Blue{fill:#1177D7;}
	.Yellow{fill:#FFB115;}
	.Black{fill:#727272;}
	.Green{fill:#039C23;}
	.Red{fill:#D11C1C;}
	.st0{opacity:0.75;}
	.st1{opacity:0.5;}
</style>
<g id="Settings">
	<path class="Blue" d="M30,18v-4l-4.4-0.7c-0.2-0.8-0.5-1.5-0.9-2.1l2.6-3.6l-2.8-2.8l-3.6,2.6c-0.7-0.4-1.4-0.7-2.1-0.9L18,2h-4
		l-0.7,4.4c-0.8,0.2-1.5,0.5-2.1,0.9L7.5,4.7L4.7,7.5l2.6,3.6c-0.4,0.7-0.7,1.4-0.9,2.1L2,14v4l4.4,0.7c0.2,0.8,0.5,1.5,0.9,2.1
		l-2.6,3.6l2.8,2.8l3.6-2.6c0.7,0.4,1.4,0.7,2.1,0.9L14,30h4l0.7-4.4c0.8-0.2,1.5-0.5,2.1-0.9l3.6,2.6l2.8-2.8l-2.6-3.6
		c0.4-0.7,0.7-1.4,0.9-2.1L30,18z M16,20c-2.2,0-4-1.8-4-4c0-2.2,1.8-4,4-4s4,1.8,4,4C20,18.2,18.2,20,16,20z"/>
</g>
</svg>
