<?xml version="1.0" encoding="utf-8"?>
<!-- Generator: Adobe Illustrator 21.1.0, SVG Export Plug-In . SVG Version: 6.00 Build 0)  -->
<svg version="1.1" id="Layer_1" xmlns="http://www.w3.org/2000/svg" xmlns:xlink="http://www.w3.org/1999/xlink" x="0px" y="0px"
	 viewBox="0 0 32 32" style="enable-background:new 0 0 32 32;" xml:space="preserve">
<style type="text/css">
	.Black{fill:#727272;}
	.Yellow{fill:#FFB115;}
	.Blue{fill:#1177D7;}
	.Red{fill:#D11C1C;}
	.White{fill:#FFFFFF;}
	.Green{fill:#039C23;}
	.st0{fill:#727272;}
	.st1{opacity:0.5;}
	.st2{opacity:0.75;}
</style>
<g id="Walking">
	<path class="Blue" d="M15.1,22.3l-5.3,7.3c-0.3,0.4-1,0.5-1.4,0.2c-0.4-0.3-0.5-1-0.2-1.4l5.5-7.5L15.1,22.3z M17,8
		c1.7,0,3-1.3,3-3s-1.3-3-3-3s-3,1.3-3,3S15.3,8,17,8z M23.7,17.7c-0.4,0.4-1,0.4-1.4,0L20,15.4v-2.8l3.7,3.7
		C24.1,16.7,24.1,17.3,23.7,17.7z M22,24L22,24l0,5c0,0.5-0.5,1-1,1s-1-0.5-1-1v-4.6l-5.2-5.2c-0.2-0.2-0.4-0.5-0.6-0.9
		c-0.1-0.3-0.2-0.7-0.2-1v0l0,0v-3.9l-2,2V19c0,0.5-0.5,1-1,1s-1-0.5-1-1l0-4c0-0.3,0.1-0.5,0.3-0.7l4-4l0,0
		c0.2-0.2,0.4-0.3,0.7-0.3h1c1.1,0,2,1.1,2,2.4v7.2l3.7,3.7C21.9,23.5,22,23.7,22,24z"/>
</g>
</svg>
