<?xml version="1.0" encoding="utf-8"?>
<!-- Generator: Adobe Illustrator 21.1.0, SVG Export Plug-In . SVG Version: 6.00 Build 0)  -->
<svg version="1.1" id="Layer_1" xmlns="http://www.w3.org/2000/svg" xmlns:xlink="http://www.w3.org/1999/xlink" x="0px" y="0px"
	 viewBox="0 0 32 32" style="enable-background:new 0 0 32 32;" xml:space="preserve">
<style type="text/css">
	.Yellow{fill:#FFB115;}
	.Red{fill:#D11C1C;}
	.Black{fill:#727272;}
	.Green{fill:#039C23;}
	.Blue{fill:#1177D7;}
</style>
<g id="Sales">
	<circle class="Black" cx="23" cy="25" r="3"/>
	<polygon class="Black" points="10,18 10,10 10,8 4,8 4,10 8,10 8,20 28,20 28,18 	"/>
	<path class="Black" d="M13,16h12c0.6,0,1-0.5,1-1V5c0-0.5-0.4-1-1-1H13c-0.6,0-1,0.5-1,1v10C12,15.5,12.4,16,13,16z M20,6h4v4h-4V6
		z"/>
	<circle class="Black" cx="13" cy="25" r="3"/>
</g>
</svg>
