<?xml version="1.0" encoding="utf-8"?>
<!-- Generator: Adobe Illustrator 21.1.0, SVG Export Plug-In . SVG Version: 6.00 Build 0)  -->
<svg version="1.1" id="Layer_1" xmlns="http://www.w3.org/2000/svg" xmlns:xlink="http://www.w3.org/1999/xlink" x="0px" y="0px"
	 viewBox="0 0 32 32" style="enable-background:new 0 0 32 32;" xml:space="preserve">
<style type="text/css">
	.Black{fill:#727272;}
</style>
<path class="Black" d="M4.7,8.9v12.9h-2V11.4c-0.4,0.3-0.8,0.5-1.2,0.7c-0.4,0.2-0.9,0.3-1.5,0.5v-1.7c0.3-0.1,0.7-0.2,1-0.4
	s0.6-0.3,0.9-0.4s0.6-0.3,0.9-0.5s0.6-0.4,1-0.6H4.7z"/>
<path class="Black" d="M8.7,22c-0.4,0-0.7-0.1-0.9-0.3c-0.2-0.2-0.4-0.5-0.4-0.8c0-0.3,0.1-0.6,0.4-0.8s0.5-0.4,0.9-0.4
	c0.4,0,0.7,0.1,0.9,0.4s0.4,0.5,0.4,0.8c0,0.3-0.1,0.6-0.4,0.8C9.4,21.8,9.1,22,8.7,22z"/>
<path class="Black" d="M12.2,21.5v-2c0.8,0.6,1.7,0.8,2.5,0.8c0.9,0,1.5-0.2,2.1-0.7c0.5-0.4,0.8-1,0.8-1.7c0-0.7-0.3-1.3-0.8-1.7
	c-0.5-0.4-1.3-0.6-2.3-0.6c-0.3,0-1,0-2.1,0.1l0.4-6.6h6.2v1.7h-4.5l-0.2,3.2c0.4,0,0.8,0,1.1,0c1.3,0,2.4,0.3,3.1,1
	c0.7,0.7,1.1,1.6,1.1,2.8c0,1.2-0.4,2.2-1.3,3c-0.8,0.8-2,1.1-3.4,1.1C13.8,22,12.8,21.8,12.2,21.5z"/>
<path class="Black" d="M30,12.8l-4.1,10.4c-0.8,1.9-2,2.8-3.6,2.8c-0.4,0-0.8,0-1.1-0.1v-1.7c0.3,0.1,0.6,0.2,0.9,0.2
	c0.8,0,1.3-0.4,1.7-1.1l0.6-1.5l-3.6-9h2.3l2.1,6.5c0,0.1,0.1,0.3,0.2,0.7h0c0-0.1,0.1-0.3,0.2-0.6l2.3-6.6H30z"/>
</svg>
