<?xml version="1.0" encoding="utf-8"?>
<!-- Generator: Adobe Illustrator 21.1.0, SVG Export Plug-In . SVG Version: 6.00 Build 0)  -->
<svg version="1.1" id="Layer_1" xmlns="http://www.w3.org/2000/svg" xmlns:xlink="http://www.w3.org/1999/xlink" x="0px" y="0px"
	 viewBox="0 0 32 32" style="enable-background:new 0 0 32 32;" xml:space="preserve">
<style type="text/css">
	.Black{fill:#727272;}
</style>
<path class="Black" d="M25.1,13l-4.1,10.4c-0.8,1.9-2,2.8-3.6,2.8c-0.4,0-0.8,0-1.1-0.1v-1.7c0.3,0.1,0.6,0.2,0.9,0.2
	c0.8,0,1.3-0.4,1.7-1.1l0.6-1.5L16,13h2.3l2.1,6.5c0,0.1,0.1,0.3,0.2,0.7h0c0-0.1,0.1-0.3,0.2-0.6l2.3-6.6H25.1z"/>
<path class="Black" d="M13.4,9.1V22h-2V11.6c-0.4,0.3-0.8,0.5-1.2,0.7c-0.4,0.2-0.9,0.3-1.5,0.5V11c0.3-0.1,0.7-0.2,1-0.4
	s0.6-0.3,0.9-0.4s0.6-0.3,0.9-0.5s0.6-0.4,1-0.6H13.4z"/>
</svg>
