<?xml version="1.0" encoding="utf-8"?>
<!-- Generator: Adobe Illustrator 21.1.0, SVG Export Plug-In . SVG Version: 6.00 Build 0)  -->
<svg version="1.1" id="Layer_1" xmlns="http://www.w3.org/2000/svg" xmlns:xlink="http://www.w3.org/1999/xlink" x="0px" y="0px"
	 viewBox="0 0 32 32" style="enable-background:new 0 0 32 32;" xml:space="preserve">
<style type="text/css">
	.Black{fill:#727272;}
</style>
<path class="Black" d="M25.1,13l-4.1,10.4c-0.8,1.9-2,2.8-3.6,2.8c-0.4,0-0.8,0-1.1-0.1v-1.7c0.3,0.1,0.6,0.2,0.9,0.2
	c0.8,0,1.3-0.4,1.7-1.1l0.6-1.5L16,13h2.3l2.1,6.5c0,0.1,0.1,0.3,0.2,0.7h0c0-0.1,0.1-0.3,0.2-0.6l2.3-6.6H25.1z"/>
<path class="Black" d="M13.7,9.4v8.1h1.9v1.7h-1.9V22h-2v-2.8H6v-1.7c0.5-0.6,1-1.2,1.6-1.9c0.5-0.7,1.1-1.4,1.6-2.1s1-1.4,1.4-2.1
	s0.8-1.4,1.1-2H13.7z M11.7,17.5v-5.3c-0.6,1.1-1.3,2.2-1.9,3s-1.2,1.6-1.8,2.3H11.7z"/>
</svg>
