<?xml version="1.0" encoding="utf-8"?>
<!-- Generator: Adobe Illustrator 21.1.0, SVG Export Plug-In . SVG Version: 6.00 Build 0)  -->
<svg version="1.1" id="Layer_1" xmlns="http://www.w3.org/2000/svg" xmlns:xlink="http://www.w3.org/1999/xlink" x="0px" y="0px"
	 viewBox="0 0 32 32" style="enable-background:new 0 0 32 32;" xml:space="preserve">
<style type="text/css">
	.Black{fill:#727272;}
</style>
<path class="Black" d="M12.5,18c0,0.6-0.1,1.2-0.3,1.7s-0.5,1-0.9,1.3C11,21.5,10.5,21.7,10,22c-0.5,0.2-1.1,0.3-1.6,0.3
	c-0.6,0-1.2-0.1-1.7-0.4s-1-0.6-1.4-1.1S4.6,19.7,4.4,19S4,17.4,4,16.5c0-1.2,0.1-2.2,0.4-3.1s0.7-1.7,1.1-2.3S6.7,10,7.3,9.7
	s1.4-0.5,2.1-0.5c0.5,0,0.9,0,1.3,0.1s0.7,0.2,0.9,0.3v1.8c-0.3-0.2-0.6-0.3-1-0.4s-0.7-0.2-1.2-0.2c-0.5,0-0.9,0.1-1.4,0.3
	s-0.8,0.5-1.1,0.9s-0.5,0.9-0.7,1.4s-0.3,1.2-0.3,2h0.1c0.3-0.4,0.6-0.7,1.1-1s1-0.4,1.6-0.4c0.6,0,1,0.1,1.5,0.3s0.8,0.4,1.1,0.8
	s0.6,0.7,0.7,1.2C12.4,16.8,12.5,17.4,12.5,18z M10.4,18.2c0-0.4,0-0.7-0.1-1s-0.2-0.6-0.4-0.8S9.5,16,9.3,15.9s-0.6-0.2-0.9-0.2
	s-0.7,0.1-0.9,0.2c-0.3,0.1-0.5,0.3-0.7,0.5s-0.3,0.4-0.4,0.7s-0.1,0.5-0.1,0.8c0,0.3,0,0.6,0.1,0.9s0.2,0.6,0.4,0.9
	s0.4,0.5,0.7,0.6c0.3,0.2,0.6,0.3,1,0.3c0.3,0,0.6-0.1,0.9-0.2s0.5-0.3,0.6-0.5s0.3-0.5,0.4-0.8S10.4,18.5,10.4,18.2z"/>
<path class="Black" d="M28,22h-2v-4.9c0-0.9-0.1-1.6-0.4-2c-0.3-0.4-0.7-0.6-1.3-0.6c-0.5,0-1,0.3-1.4,0.8c-0.4,0.5-0.6,1.2-0.6,1.9
	V22h-2V17c0-1.7-0.6-2.5-1.8-2.5c-0.6,0-1,0.3-1.4,0.8c-0.4,0.5-0.5,1.2-0.5,2V22h-2v-9h2v1.4h0c0.7-1.1,1.6-1.6,2.8-1.6
	c0.6,0,1.2,0.2,1.6,0.5c0.5,0.3,0.8,0.8,1,1.3c0.7-1.2,1.7-1.9,3-1.9c2,0,3,1.2,3,3.7V22z"/>
</svg>
