<?xml version="1.0" encoding="utf-8"?>
<!-- Generator: Adobe Illustrator 22.1.0, SVG Export Plug-In . SVG Version: 6.00 Build 0)  -->
<!DOCTYPE svg PUBLIC "-//W3C//DTD SVG 1.1//EN" "http://www.w3.org/Graphics/SVG/1.1/DTD/svg11.dtd">
<svg version="1.1" id="Layer_1" xmlns="http://www.w3.org/2000/svg" xmlns:xlink="http://www.w3.org/1999/xlink" x="0px" y="0px"
	 viewBox="0 0 280 60" style="enable-background:new 0 0 280 60;" xml:space="preserve">
<style type="text/css">
	.Red{fill:#E80505;}
	.Black{fill:#2B2B2B;}
	.st0{fill:#E80505;}
	.st1{opacity:0.75;}
</style>
<g>
	<g>
		<path class="st0" d="M60,29C59.4,16.2,48.9,6,36,6C22.8,6,12,16.7,12,30c0,1,0.1,1.9,0.2,2.9L7.1,38l2,2L21,28l8,8l17-17l18,18
			l2-2L60,29z M29,32l-8-8l-6,6c0,0,0,0,0,0c0-11.6,9.4-21,21-21c10.1,0,18.4,7.1,20.5,16.5L46,15L29,32z"/>
	</g>
	<g>
		<path class="Red" d="M29,40l-8-8L10.9,42.1l2,2l2.2-2.2C19.3,49.1,27.1,54,36,54c10,0,18.6-6.1,22.2-14.8L60,41l2-2L46,23L29,40z
			 M36,51c-8.1,0-15.2-4.6-18.6-11.4L21,36l8,8l17-17l9.8,9.8C53,45.1,45.2,51,36,51z"/>
	</g>
</g>
<g class="st1">
	<path class="Black" d="M82.6,43v-5.6c2,1.6,4,2.4,5.8,2.4c1,0,1.8-0.3,2.3-0.9c0.5-0.6,0.8-1.3,0.8-2.2c0-0.9-0.3-1.6-0.8-2.3
		c-0.5-0.7-1.5-1.4-3-2.3c-3.5-2.1-5.3-4.8-5.3-8.2c0-2.5,0.7-4.5,2.2-6.1c1.5-1.5,3.5-2.3,5.9-2.3c2.1,0,3.9,0.3,5.4,1v5.2
		c-1.6-1-3.3-1.5-4.9-1.5c-0.9,0-1.6,0.3-2.2,0.9c-0.6,0.6-0.9,1.3-0.9,2.2c0,1.7,1.1,3.2,3.4,4.5c2.2,1.2,3.7,2.5,4.5,3.8
		c0.8,1.3,1.3,2.9,1.3,4.7c0,2.4-0.7,4.4-2.2,5.9c-1.5,1.5-3.6,2.3-6.3,2.3c-1,0-2.1-0.1-3.3-0.4C84,43.7,83.1,43.4,82.6,43z"/>
	<path class="Black" d="M109.4,43.7c-1,0.4-2.2,0.6-3.4,0.6c-3.4,0-5.1-2-5.1-6.1V28.2h-2.4V24h2.4v-4.5c0,0,0.1,0,0.4-0.1
		c2.9-1,4.5-1.5,4.7-1.5V24h3.4v4.2H106v9.6c0,1.6,0.6,2.3,1.9,2.3c0.6,0,1.1-0.1,1.5-0.4V43.7z"/>
	<path class="Black" d="M118.9,44.4c-2.6,0-4.6-0.9-6-2.7c-1.4-1.8-2.1-4.4-2.1-7.7c0-3.3,0.7-5.8,2.2-7.6c1.4-1.8,3.4-2.7,6-2.7
		c2.6,0,4.6,0.9,6,2.7c1.4,1.8,2.1,4.2,2.1,7.4c0,3.4-0.7,6.1-2.1,7.9C123.6,43.4,121.5,44.4,118.9,44.4z M119,27.8
		c-1.9,0-2.9,2-2.9,6.1c0,4.2,1,6.2,2.9,6.2c1.9,0,2.9-2.1,2.9-6.4C121.8,29.8,120.9,27.8,119,27.8z"/>
	<path class="Black" d="M141.4,43.2c-1,0.8-2.4,1.2-4.1,1.2c-2.2,0-4.1-0.9-5.6-2.8c-1.5-1.9-2.2-4.2-2.2-7.1c0-3.4,0.8-6,2.3-7.9
		s3.6-2.9,6.1-2.9c1.6,0,2.8,0.3,3.5,0.8V29c-0.7-0.8-1.6-1.2-2.7-1.2c-1.2,0-2.1,0.6-2.8,1.7c-0.7,1.1-1,2.7-1,4.6
		c0,2,0.3,3.5,1,4.5c0.6,1,1.5,1.6,2.7,1.6c1.1,0,2.1-0.4,2.9-1.1V43.2z"/>
	<path class="Black" d="M154.3,44l-4.7-10.2h0V44h-5.1V14.4h5.1v19h0L154,24h5.7l-5.1,9.3L160,44H154.3z"/>
	<path class="Black" d="M190.7,44V27.7c0-1.4,0.1-3.5,0.2-6.3h-0.1c-0.2,1.2-0.4,2.8-0.8,4.7L185.8,44h-4.9l-4.3-17.7l-0.8-5h-0.2
		c0.1,2.6,0.2,5.2,0.2,7.8V44h-4.5V16h7.6l3.9,17.1c0.4,1.7,0.6,3.2,0.7,4.3h0.1l0.1-1c0.2-1.6,0.3-2.7,0.5-3.4L188,16h7.3v28H190.7
		z"/>
	<path class="Black" d="M208.2,44v-2.6h-0.1c-1,2-2.5,3-4.7,3c-1.4,0-2.5-0.5-3.4-1.6c-0.9-1-1.3-2.5-1.3-4.2c0-3.7,1.9-6,5.6-6.8
		l4-0.8v-0.5c0-1.8-1-2.7-2.9-2.7c-1.6,0-3.3,0.6-5.2,1.9v-4.5c2.1-1,4.1-1.5,6-1.5c2.6,0,4.4,0.6,5.5,1.9s1.6,3.3,1.6,6.1V44H208.2
		z M208.2,34.3l-2.3,0.5c-1.5,0.3-2.3,1.3-2.3,3c0,0.8,0.2,1.4,0.6,1.9s0.8,0.6,1.4,0.6c0.8,0,1.5-0.4,1.9-1.1
		c0.5-0.7,0.7-1.7,0.7-2.9V34.3z"/>
	<path class="Black" d="M227.7,28.8c-0.6-0.2-1.2-0.4-1.8-0.4c-2.5,0-3.7,1.8-3.7,5.5V44h-5.1V24h5.1v3.3h0.1
		c0.7-2.4,2.1-3.7,4.1-3.7c0.4,0,0.8,0.1,1.3,0.2V28.8z"/>
	<path class="Black" d="M239.7,44L235,33.8h0V44h-5.1V14.4h5.1v19h0l4.4-9.4h5.7l-5.1,9.3l5.4,10.7H239.7z"/>
	<path class="Black" d="M250.8,35.6c0.1,3.1,1.5,4.7,4.4,4.7c1.5,0,3-0.5,4.6-1.4v4.2c-1.7,0.8-3.5,1.2-5.4,1.2
		c-2.8,0-5-0.9-6.5-2.6s-2.3-4.3-2.3-7.7c0-3,0.7-5.5,2.1-7.5c1.4-1.9,3.4-2.9,6-2.9c2.3,0,4.1,0.8,5.3,2.4c1.2,1.6,1.8,3.9,1.8,6.8
		v2.7H250.8z M256.2,32c0-1.4-0.2-2.5-0.5-3.3s-1-1.2-1.9-1.2c-1.8,0-2.8,1.5-2.9,4.5H256.2z"/>
	<path class="Black" d="M272.9,43.7c-1,0.4-2.2,0.6-3.4,0.6c-3.4,0-5.1-2-5.1-6.1V28.2H262V24h2.4v-4.5c0,0,0.1,0,0.4-0.1
		c2.9-1,4.5-1.5,4.7-1.5V24h3.4v4.2h-3.4v9.6c0,1.6,0.6,2.3,1.9,2.3c0.6,0,1.1-0.1,1.5-0.4V43.7z"/>
</g>
</svg>
