<?xml version="1.0" encoding="utf-8"?>
<!-- Generator: Adobe Illustrator 21.1.0, SVG Export Plug-In . SVG Version: 6.00 Build 0)  -->
<svg version="1.1" id="Layer_1" xmlns="http://www.w3.org/2000/svg" xmlns:xlink="http://www.w3.org/1999/xlink" x="0px" y="0px"
	 viewBox="0 0 32 32" style="enable-background:new 0 0 32 32;" xml:space="preserve">
<style type="text/css">
	.Red{fill:#D11C1C;}
	.Black{fill:#727272;}
</style>
<polygon class="Red" points="26,12 24,12 24,8 22,8 22,12 20,12 20,26 22,26 22,30 24,30 24,26 26,26 "/>
<polygon class="Red" points="10,18 8,18 8,8 6,8 6,18 4,18 4,26 6,26 6,30 8,30 8,26 10,26 "/>
<g>
	<g>
		<path class="Black" d="M16,6V2h-2v4h-2v12h2v4h2v-4h2V6H16z M16,16h-2V8h2V16z"/>
	</g>
	<g>
		<path class="Black" d="M16,6V2h-2v4h-2v12h2v4h2v-4h2V6H16z M16,16h-2V8h2V16z"/>
	</g>
</g>
</svg>
