<?xml version="1.0" encoding="utf-8"?>
<!-- Generator: Adobe Illustrator 22.1.0, SVG Export Plug-In . SVG Version: 6.00 Build 0)  -->
<!DOCTYPE svg PUBLIC "-//W3C//DTD SVG 1.1//EN" "http://www.w3.org/Graphics/SVG/1.1/DTD/svg11.dtd">
<svg version="1.1" id="Layer_1" xmlns="http://www.w3.org/2000/svg" xmlns:xlink="http://www.w3.org/1999/xlink" x="0px" y="0px"
	 viewBox="0 0 150 26" style="enable-background:new 0 0 150 26;" xml:space="preserve">
<style type="text/css">
	.Black{fill:#333333;}
	.st0{opacity:0.5;}
</style>
<g class="st0">
	<path class="Black" d="M35.8,3.9c-1.6,0-3.2,0.1-4.4,0.4v16.6c0.9,0.1,2.1,0.2,3.7,0.2c2.9,0,5.3-0.7,6.8-2.1
		c1.3-1.2,2.5-3.3,2.5-6.9c0-3-0.9-5.1-2.5-6.4C40.5,4.5,38.6,3.9,35.8,3.9z M35.9,18.4c-0.4,0-0.9,0-1.2-0.1V6.5
		c0.4-0.1,0.9-0.1,1.5-0.1c3,0,4.9,1.9,4.9,5.7C41.1,16.5,39,18.4,35.9,18.4z"/>
	<path class="Black" d="M51.7,8.4c-3.6,0-5.6,3-5.6,6.5c0,3.8,2.1,6.2,5.9,6.2c1.5,0,2.9-0.3,3.9-0.7l-0.5-2.2
		c-0.8,0.3-1.8,0.5-3,0.5c-1.8,0-3.2-0.8-3.3-2.9h7.3c0.1-0.3,0.1-0.8,0.1-1.3C56.5,10.5,54.6,8.4,51.7,8.4z M49.2,13.5
		c0.1-1.2,0.7-2.8,2.3-2.8c1.6,0,2.1,1.6,2.1,2.8H49.2z"/>
	<path class="Black" d="M65.6,8.6l-1.5,5.9c-0.3,1.1-0.5,2.1-0.7,3.1h-0.1c-0.2-1-0.4-2.1-0.7-3.1L61,8.6h-3.5l4.1,12.2h3.1
		l4.2-12.2H65.6z"/>
	<path class="Black" d="M1.7,19.7c-0.6,0.8-1.1,1.4-1.4,2.1C0.2,22,0,22.4,0,22.7v0.4c0,0.8,0.6,1.4,1.4,1.4h21.3
		c0.8,0,1.4-0.6,1.4-1.4V6.8C12.4,8.9,5.3,15.2,1.7,19.7z"/>
	<polygon class="Black" points="74.1,13.4 79.6,13.4 79.6,10.8 74.1,10.8 74.1,6.7 79.9,6.7 79.9,4 70.8,4 70.8,20.8 80.2,20.8 
		80.2,18.1 74.1,18.1 	"/>
	<path class="Black" d="M92.5,8.6H89l-1.1,2.2c-0.3,0.6-0.6,1.3-0.9,1.9h0c-0.3-0.6-0.6-1.2-0.9-1.9l-1.2-2.2h-3.6l3.6,6l-3.7,6.2
		h3.5l1.1-2.4c0.3-0.6,0.6-1.3,0.9-1.9h0c0.3,0.7,0.6,1.3,0.9,1.9l1.2,2.4h3.6l-3.7-6.3L92.5,8.6z"/>
	<path class="Black" d="M100.7,8.4c-1.6,0-2.8,0.7-3.6,1.9h0l-0.2-1.7h-2.8c0,1.1,0.1,2.4,0.1,4v13.1h3.2v-6.1h0
		c0.5,0.8,1.6,1.4,2.9,1.4c2.5,0,5-2,5-6.5C105.3,10.9,103.4,8.4,100.7,8.4z M99.6,18.5c-1.1,0-2.2-0.9-2.2-2.6v-2.3
		c0-1.5,1-2.6,2.2-2.6c1.6,0,2.4,1.6,2.4,3.7C102.1,16.9,101.2,18.5,99.6,18.5z"/>
	<path class="Black" d="M110.5,10.8L110.5,10.8l-0.2-2.1h-2.8c0,1.1,0.1,2.3,0.1,3.8v8.4h3.2v-6.3c0-2.1,1.1-3.1,2.6-3.1
		c0.3,0,0.6,0,0.8,0.1V8.5c-0.2,0-0.4-0.1-0.7-0.1C112.4,8.4,111.1,9.2,110.5,10.8z"/>
	<path class="Black" d="M121,8.4c-3.6,0-5.6,3-5.6,6.5c0,3.8,2.1,6.2,5.9,6.2c1.5,0,2.9-0.3,3.9-0.7l-0.5-2.2
		c-0.8,0.3-1.8,0.5-3,0.5c-1.8,0-3.2-0.8-3.3-2.9h7.3c0.1-0.3,0.1-0.8,0.1-1.3C125.9,10.5,124,8.4,121,8.4z M118.5,13.5
		c0.1-1.2,0.7-2.8,2.3-2.8c1.6,0,2.1,1.6,2.1,2.8H118.5z"/>
	<path class="Black" d="M132.6,13.5c-1.4-0.6-1.9-0.9-1.9-1.6c0-0.7,0.5-1.2,1.5-1.2c0.9,0,1.8,0.3,2.3,0.6l0.6-2.3
		c-0.7-0.4-1.8-0.7-3-0.7c-2.7,0-4.5,1.7-4.5,3.9c0,1.3,0.8,2.6,3.1,3.5c1.3,0.6,1.8,1,1.8,1.7c0,0.7-0.5,1.2-1.7,1.2
		c-1,0-2.2-0.4-2.8-0.8l-0.6,2.3c0.8,0.5,2.1,0.8,3.4,0.8c3,0,4.8-1.5,4.8-3.9C135.7,15.5,134.7,14.3,132.6,13.5z"/>
	<path class="Black" d="M142.3,13.5c-1.4-0.6-1.9-0.9-1.9-1.6c0-0.7,0.5-1.2,1.5-1.2c0.9,0,1.8,0.3,2.3,0.6l0.6-2.3
		c-0.7-0.4-1.8-0.7-3-0.7c-2.7,0-4.5,1.7-4.5,3.9c0,1.3,0.8,2.6,3.1,3.5c1.3,0.6,1.8,1,1.8,1.7c0,0.7-0.5,1.2-1.7,1.2
		c-1,0-2.2-0.4-2.8-0.8l-0.6,2.3c0.8,0.5,2.1,0.8,3.4,0.8c3,0,4.8-1.5,4.8-3.9C145.4,15.5,144.4,14.3,142.3,13.5z"/>
	<path class="Black" d="M22.6,0.5H1.4C0.6,0.5,0,1.2,0,1.9v12.7c4.2-4.4,11.7-9.3,23.1-10.6c0.3,0,0.9-0.2,0.9-1V1.9
		C24,1.2,23.4,0.5,22.6,0.5z"/>
	<path class="Black" d="M148.5,7.9L148.5,7.9c0.4-0.1,0.5-0.3,0.5-0.6c0-0.2-0.1-0.3-0.2-0.5c-0.1-0.1-0.4-0.2-0.6-0.2h-0.7v2.2h0.4
		V8h0.2c0.1,0,0.2,0.1,0.3,0.3l0.2,0.6h0.5l-0.3-0.6C148.7,8.1,148.6,8,148.5,7.9z M148.2,7.7h-0.3V7.1h0.3c0.3,0,0.4,0.1,0.4,0.3
		c0,0.1,0,0.2-0.1,0.2C148.4,7.7,148.3,7.7,148.2,7.7z"/>
	<path class="Black" d="M149.5,6.6c-0.3-0.3-0.8-0.5-1.3-0.5c-0.5,0-1,0.2-1.3,0.5c-0.4,0.3-0.5,0.8-0.5,1.3c0,0.5,0.2,0.9,0.5,1.3
		c0.3,0.3,0.8,0.5,1.3,0.5c0.5,0,0.9-0.2,1.3-0.5c0.4-0.3,0.5-0.8,0.5-1.3C150,7.3,149.8,6.9,149.5,6.6z M149.3,8.9
		c-0.3,0.3-0.7,0.4-1.1,0.4c-0.4,0-0.8-0.1-1.1-0.4c-0.3-0.3-0.4-0.7-0.4-1.1c0-0.4,0.1-0.8,0.4-1.1c0.3-0.3,0.7-0.4,1.1-0.4
		c0.4,0,0.8,0.1,1.1,0.4c0.3,0.3,0.4,0.7,0.4,1.1C149.7,8.3,149.6,8.6,149.3,8.9z"/>
	<g class="st0">
		<path class="Black" d="M113.2,0.1c0.3,0,0.6-0.1,1.1-0.1c0.5,0,0.9,0.1,1.2,0.3c0.3,0.2,0.4,0.5,0.4,0.9c0,1.1-0.9,1.4-1.5,1.4
			c-0.1,0-0.2,0-0.2,0V4h-0.9V0.1z M114.1,1.9c0.1,0,0.1,0,0.2,0c0.4,0,0.6-0.3,0.6-0.6c0-0.4-0.2-0.6-0.6-0.6c-0.1,0-0.2,0-0.3,0
			V1.9z"/>
		<path class="Black" d="M119.6,2c0,1.4-0.7,2.1-1.7,2.1c-1.1,0-1.6-0.9-1.6-2c0-1.1,0.6-2,1.7-2C119.1,0,119.6,1,119.6,2z M117.2,2
			c0,0.8,0.3,1.3,0.7,1.3c0.5,0,0.7-0.5,0.7-1.3c0-0.7-0.2-1.3-0.7-1.3C117.4,0.7,117.2,1.3,117.2,2z"/>
		<path class="Black" d="M124.5,0.1l-0.9,4h-1l-0.3-1.4c-0.1-0.4-0.1-0.8-0.2-1.2h0c-0.1,0.5-0.1,0.9-0.2,1.3L121.7,4h-1l-0.8-4h1
			l0.2,1.5c0.1,0.5,0.1,1,0.2,1.4h0c0.1-0.5,0.2-0.9,0.2-1.4l0.3-1.5h0.9l0.3,1.6c0.1,0.5,0.1,0.9,0.2,1.4h0
			c0.1-0.5,0.1-0.9,0.2-1.4l0.2-1.5H124.5z"/>
		<path class="Black" d="M127.3,4h-2.2v-4h2.2v0.8H126v0.8h1.2v0.7H126v0.9h1.3V4z"/>
		<path class="Black" d="M130,2.2c0.3,0.1,0.4,0.4,0.5,0.7c0.1,0.4,0.2,1,0.3,1.1h-0.9c-0.1-0.1-0.2-0.5-0.2-0.9
			c-0.1-0.5-0.2-0.6-0.5-0.6h-0.2V4H128V0.1c0.3,0,0.7-0.1,1.1-0.1c0.5,0,1.6,0.1,1.6,1.1C130.6,1.6,130.3,2,130,2.2L130,2.2z
			 M129.1,1.8c0.4,0,0.6-0.2,0.6-0.6c0-0.4-0.3-0.5-0.5-0.5c-0.1,0-0.2,0-0.3,0v1.1H129.1z"/>
		<path class="Black" d="M133.6,4h-2.2v-4h2.2v0.8h-1.3v0.8h1.2v0.7h-1.2v0.9h1.3V4z"/>
		<path class="Black" d="M134.3,0.1c0.3,0,0.6-0.1,1-0.1c0.7,0,1.1,0.1,1.4,0.4c0.4,0.3,0.6,0.8,0.6,1.5c0,0.8-0.3,1.4-0.6,1.6
			c-0.4,0.3-0.9,0.4-1.6,0.4c-0.4,0-0.7,0-0.9-0.1V0.1z M135.2,3.3c0.1,0,0.1,0,0.2,0c0.6,0,1-0.4,1-1.4c0-0.8-0.4-1.2-0.9-1.2
			c-0.1,0-0.2,0-0.3,0V3.3z"/>
		<path class="Black" d="M141.2,1.9c0.5,0.1,0.7,0.5,0.7,0.9c0,0.3-0.1,0.6-0.4,0.8c-0.3,0.2-0.7,0.4-1.5,0.4c-0.4,0-0.7,0-0.9-0.1
			V0.1c0.2,0,0.7-0.1,1.1-0.1c0.5,0,0.8,0.1,1.1,0.2c0.3,0.2,0.4,0.4,0.4,0.8C141.8,1.4,141.6,1.7,141.2,1.9L141.2,1.9z M140.3,1.6
			c0.4,0,0.6-0.2,0.6-0.5c0-0.3-0.2-0.5-0.5-0.5c-0.1,0-0.2,0-0.3,0v0.9H140.3z M140.1,3.4c0.1,0,0.1,0,0.3,0c0.3,0,0.6-0.2,0.6-0.5
			c0-0.4-0.3-0.5-0.7-0.5h-0.2V3.4z"/>
		<path class="Black" d="M145.4,0.1l-1.1,2.4V4h-0.9V2.5l-1.1-2.4h1l0.3,0.9c0.1,0.3,0.2,0.5,0.2,0.8h0c0.1-0.3,0.1-0.5,0.2-0.8
			l0.3-0.9H145.4z"/>
	</g>
</g>
</svg>
