<?xml version="1.0" encoding="utf-8"?>
<!-- Generator: Adobe Illustrator 21.1.0, SVG Export Plug-In . SVG Version: 6.00 Build 0)  -->
<svg version="1.1" id="Layer_1" xmlns="http://www.w3.org/2000/svg" xmlns:xlink="http://www.w3.org/1999/xlink" x="0px" y="0px"
	 viewBox="0 0 32 32" style="enable-background:new 0 0 32 32;" xml:space="preserve">
<style type="text/css">
	.White{fill:#FFFFFF;}
</style>
<path class="White" d="M16,2C8.3,2,2,8.3,2,16s6.3,14,14,14s14-6.3,14-14S23.7,2,16,2z M16,28C9.4,28,4,22.6,4,16C4,9.4,9.4,4,16,4
	s12,5.4,12,12C28,22.6,22.6,28,16,28z"/>
<path class="White" d="M14.5,19.2c0-1,0.1-1.7,0.4-2.3c0.3-0.6,0.8-1.2,1.5-1.9c0.8-0.7,1.2-1.2,1.4-1.4c0.3-0.4,0.5-0.9,0.5-1.4
	c0-0.7-0.2-1.2-0.5-1.5c-0.4-0.4-0.9-0.5-1.6-0.5c-0.7,0-1.2,0.2-1.6,0.5c-0.4,0.3-0.6,0.8-0.6,1.4h-2.8c0-1.3,0.5-2.3,1.4-3
	C13.4,8.3,14.6,8,16.2,8c1.6,0,2.8,0.4,3.7,1.1c0.9,0.7,1.3,1.8,1.3,3.1c0,1.2-0.6,2.3-1.8,3.5l-1.4,1.3c-0.5,0.5-0.8,1.3-0.8,2.4
	H14.5z"/>
<circle class="White" cx="16" cy="22.4" r="1.5"/>
</svg>
