<?xml version="1.0" encoding="utf-8"?>
<!-- Generator: Adobe Illustrator 21.1.0, SVG Export Plug-In . SVG Version: 6.00 Build 0)  -->
<svg version="1.1" id="Layer_1" xmlns="http://www.w3.org/2000/svg" xmlns:xlink="http://www.w3.org/1999/xlink" x="0px" y="0px"
	 viewBox="0 0 32 32" style="enable-background:new 0 0 32 32;" xml:space="preserve">
<style type="text/css">
	.Black{fill:#727272;}
	.Red{fill:#D11C1C;}
</style>
<path class="Black" d="M16,20c1.6,0,2.8-1,3.6-2.2c2.8-0.4,5.1-1.3,6.1-2.4c-1-0.6-1.6-1.7-1.8-2.9c0-0.2,0-0.3,0-0.5v-2
	c0-2.2-1.8-4-4-4c0-2.2-1.8-4-4-4c-4.4,0-8,3.6-8,8v2c0,0.2,0,0.3,0,0.5c-0.1,1.2-0.8,2.2-1.8,2.9c1,1.1,3.3,2,6.2,2.4
	C13.2,19,14.4,20,16,20z"/>
<path class="Red" d="M20,20c0,2.2-3,4-4,4s-4-1.8-4-4c-2.2,3.5-8,4-8,8v0.5V30h24v-1.5V28C28,24,22.3,23.3,20,20z"/>
</svg>
