<?xml version="1.0" encoding="utf-8"?>
<!-- Generator: Adobe Illustrator 21.1.0, SVG Export Plug-In . SVG Version: 6.00 Build 0)  -->
<svg version="1.1" id="Layer_1" xmlns="http://www.w3.org/2000/svg" xmlns:xlink="http://www.w3.org/1999/xlink" x="0px" y="0px"
	 viewBox="0 0 32 32" style="enable-background:new 0 0 32 32;" xml:space="preserve">
<style type="text/css">
	.Black{fill:#727272;}
	.Green{fill:#039C23;}
</style>
<path class="Green" d="M28,28c0-4-5.7-4.7-8-8l-4,8l-4-8c-2.2,3.5-8,4-8,8l0,0v0.5V30h24v-1.5V28L28,28z"/>
<path class="Black" d="M16.1,20c1.6,0,2.8-1,3.6-2.2c2.8-0.4,5.1-1.3,6.1-2.4c-1-0.6-1.6-1.7-1.8-2.9c0-0.2,0-0.3,0-0.5v-2
	c0-2.2-1.8-4-4-4c0-2.2-1.8-4-4-4c-4.4,0-8,3.6-8,8v2c0,0.2,0,0.3,0,0.5c-0.1,1.2-0.8,2.2-1.8,2.9c1,1.1,3.3,2,6.2,2.4
	C13.3,19,14.5,20,16.1,20z"/>
</svg>
