<?xml version="1.0" encoding="utf-8"?>
<!-- Generator: Adobe Illustrator 21.1.0, SVG Export Plug-In . SVG Version: 6.00 Build 0)  -->
<svg version="1.1" id="Unpaid" xmlns="http://www.w3.org/2000/svg" xmlns:xlink="http://www.w3.org/1999/xlink" x="0px" y="0px"
	 viewBox="0 0 16 16" style="enable-background:new 0 0 16 16;" xml:space="preserve">
<style type="text/css">
	.Red{fill:#DD7154;}
</style>
<path class="Red" d="M8,1C4.1,1,1,4.1,1,8c0,3.9,3.1,7,7,7s7-3.1,7-7C15,4.1,11.9,1,8,1z M8,3c1,0,2,0.3,2.8,0.8l-6.9,6.9
	C3.3,10,3,9,3,8C3,5.2,5.2,3,8,3z M8,13c-1,0-2-0.3-2.8-0.8l6.9-6.9C12.7,6,13,7,13,8C13,10.8,10.8,13,8,13z"/>
</svg>
