<?xml version="1.0" encoding="utf-8"?>
<!-- Generator: Adobe Illustrator 21.1.0, SVG Export Plug-In . SVG Version: 6.00 Build 0)  -->
<svg version="1.1" id="Awaiting" xmlns="http://www.w3.org/2000/svg" xmlns:xlink="http://www.w3.org/1999/xlink" x="0px" y="0px"
	 viewBox="0 0 16 16" style="enable-background:new 0 0 16 16;" xml:space="preserve">
<style type="text/css">
	.Green{fill:#76A797;}
	.Grey{fill:#838383;}
</style>
<polygon class="Grey" points="8,8 8,4 7,4 7,8 7,9 8,9 12,9 12,8 "/>
<path class="Green" d="M8,1C4.1,1,1,4.1,1,8c0,3.9,3.1,7,7,7s7-3.1,7-7C15,4.1,11.9,1,8,1z M8,13c-2.8,0-5-2.2-5-5s2.2-5,5-5
	s5,2.2,5,5S10.8,13,8,13z"/>
</svg>
